<svg height="512" viewBox="58 46 690 512" width="690" xmlns="http://www.w3.org/2000/svg"><path d="m366.9 132.6h17.4v20.1h-17.4z" fill="#f8971d"/><path d="m366.9 164.2h17.4v22.6h-17.4z" fill="#f8971d"/><path d="m478.6 55.2h-151c-8.7 0-15.7 7.1-15.7 15.8v151c0 8.7 7.1 15.8 15.7 15.8h151.1c8.7 0 15.8-7.1 15.8-15.8v-151.1c-.1-8.7-7.2-15.7-15.9-15.7zm-124.4 68.1c0-1.5.7-2.2 2.2-2.2h38.4c1.5 0 2.2.7 2.2 2.2v72.8c0 1.5-.7 2.2-2.2 2.2h-38.4c-1.5 0-2.2-.7-2.2-2.2zm75 94.4c0 1.5-.7 2.2-2.2 2.2h-92.8c-1.5 0-2.2-.7-2.2-2.2v-140.9c0-1.5.7-2.2 2.2-2.2h8.3c1.5 0 2.2.7 2.2 2.2v131.6h72.3v-15.4c0-1.4.7-2 2.2-2h7.9c1.5 0 2.2.7 2.2 2v24.7zm21.5-42.6c0 1.5-.7 2.2-2.2 2.2h-38.4c-1.5 0-2.2-.7-2.2-2.2v-20.1c0-1.4.7-2 2.2-2h7.9c1.5 0 2.2.7 2.2 2v10.8h17.8v-22.2l-27.9-.1c-1.5 0-2.2-.8-2.2-2.2v-38.8c0-1.5.7-2.2 2.2-2.2h38.4c1.5 0 2.2.7 2.2 2.2v15.5c0 1.3-.7 2-2.2 2h-7.9c-1.5 0-2.2-.7-2.2-2v-6.3h-17.8v19.8l27.9-.1c1.5 0 2.2.7 2.2 2.2zm23 42.6c0 1.5-.7 2.2-2.2 2.2h-8.3c-1.5 0-2.2-.7-2.2-2.2v-131.6h-72.3v15.3c0 1.4-.7 2-2.2 2h-7.9c-1.5 0-2.2-.7-2.2-2v-24.6c0-1.5.7-2.2 2.2-2.2h92.8c1.5 0 2.2.7 2.2 2.2v140.9z" fill="#f8971d"/><g fill="#fff"><path d="m88.9 392.9h-20.8v-94.8h20.8z"/><path d="m170.1 363.7c0 19.9-16.4 31.2-35.3 31.2-18.7 0-35.3-11.2-35.3-31.2s16.4-31.3 35.3-31.3 35.3 11.3 35.3 31.3zm-48.6 0c0 7.4 4.9 13.1 13.4 13.1s13.4-5.7 13.4-13.1c0-7.2-4.9-13.2-13.4-13.2-8.5-.1-13.4 6-13.4 13.2z"/><path d="m219.5 349.4c-3.2-1.7-7.7-2.9-11.2-2.9-2.4 0-6.5 1-6.5 4 0 4 6.5 4.6 9.4 5.1 9.7 1.9 17 6.5 17 17.4 0 15.4-14 21.8-27.6 21.8-8.3 0-16.6-2.4-23.6-6.7l7.5-14.5c4.2 3 11.3 5.9 16.4 5.9 2.6 0 6.5-1.3 6.5-4.5 0-4.6-6.5-4.8-13-6.5s-13-4.9-13-15.4c0-14.4 13-20.8 25.8-20.8 6.6 0 13.2 1 19.3 3.8z"/><path d="m265.6 392.9h-20.8v-41.5h-6.7v-17.1h6.7v-17.6h20.8v17.6h11.8v17.1h-11.8z"/><path d="m396.5 363.7c0 19.9-16.4 31.2-35.3 31.2-18.7 0-35.3-11.2-35.3-31.2s16.4-31.3 35.3-31.3 35.3 11.3 35.3 31.3zm-48.6 0c0 7.4 4.9 13.1 13.4 13.1s13.4-5.7 13.4-13.1c0-7.2-4.9-13.2-13.4-13.2-8.5-.1-13.4 6-13.4 13.2z"/><path d="m427.9 343.9h.2c4-7.2 10.8-10.4 19-10.4h4v20c-2.9-1.6-5.6-1.9-8.8-1.9-11.5 0-14.4 7.7-14.4 17.7v23.6h-20.8v-58.6h20.8z"/><path d="m484.5 311.8c0 6.4-5.3 11.6-11.6 11.6-6.4 0-11.6-5.2-11.6-11.6s5.3-11.6 11.6-11.6 11.6 5.2 11.6 11.6zm-1.3 81.1h-20.8v-58.6h20.8z"/><path d="m562.5 387.2c0 24.9-12.3 34.9-33.9 34.9-13.5 0-31.5-7-33.3-22.4h23.3c.6 2.1 2.1 3.5 3.9 4.5 1.8.9 4 1.4 5.9 1.4 11.2 0 13.4-7.3 13.4-16.8v-2.8c-5.4 5.4-10.8 8-18.6 8-17.1 0-28.9-13-28.9-29.9 0-17.1 12.1-31.8 30-31.8 6.9 0 13.1 2.3 17.2 8.1h.2v-6.2h20.8zm-46.9-24c0 7.4 4.9 13.1 13.4 13.1 8.4 0 13.4-5.7 13.4-13.1 0-7.2-4.9-13.2-13.4-13.2-8.5-.1-13.4 6-13.4 13.2z"/><path d="m598.8 311.8c0 6.4-5.3 11.6-11.6 11.6s-11.6-5.2-11.6-11.6 5.3-11.6 11.6-11.6 11.6 5.2 11.6 11.6zm-1.3 81.1h-20.8v-58.6h20.8z"/><path d="m633.3 341.8h.2c4.8-7.1 10.6-9.5 18.7-9.5 15.8 0 22 9.9 22 24.3v36.2h-20.8v-28.6c0-5.6.9-15.4-9.4-15.4-8.5 0-10.8 6.3-10.8 13.6v30.4h-20.8v-58.6h20.8v7.6z"/><path d="m728 349.4c-3.2-1.7-7.6-2.9-11.2-2.9-2.4 0-6.5 1-6.5 4 0 4 6.5 4.6 9.4 5.1 9.7 1.9 17 6.5 17 17.4 0 15.4-14 21.8-27.6 21.8-8.3 0-16.6-2.4-23.6-6.7l7.5-14.5c4.2 3 11.3 5.9 16.4 5.9 2.6 0 6.5-1.3 6.5-4.5 0-4.6-6.5-4.8-13-6.5s-13-4.9-13-15.4c0-14.4 13-20.8 25.8-20.8 6.6 0 13.2 1 19.3 3.8z"/><path d="m251.6 513.7c0 24.9-12.3 34.9-33.9 34.9-13.5 0-31.5-7-33.3-22.4h23.3c.6 2.1 2.1 3.5 3.9 4.5 1.8.9 4 1.4 5.9 1.4 11.2 0 13.4-7.3 13.4-16.8v-2.7c-5.4 5.4-10.8 8-18.6 8-17.1 0-28.9-13-28.9-29.9 0-17.1 12.1-31.8 30-31.8 6.9 0 13.1 2.3 17.2 8.1h.2v-6.2h20.8zm-46.8-24c0 7.4 4.9 13.1 13.4 13.1s13.4-5.7 13.4-13.1c0-7.2-4.9-13.2-13.4-13.2s-13.4 6.1-13.4 13.2z"/><path d="m332.3 519.4h-20.8v-6.5h-.2c-3.7 5.8-10.9 8.5-17.7 8.5-17.4 0-29.6-14.5-29.6-31.3s12-31.2 29.4-31.2c6.7 0 13.8 2.5 18.2 7.7v-5.7h20.8v58.5zm-46.9-29.2c0 7.4 4.9 13.1 13.4 13.1s13.4-5.7 13.4-13.1c0-7.2-4.9-13.2-13.4-13.2s-13.4 6-13.4 13.2z"/><path d="m368.1 519.4h-20.8v-94.8h20.8z"/><path d="m403.9 519.4h-20.8v-94.8h20.8z"/><path d="m481.3 493.6h-43.7c0 8.5 4.5 13 13 13 4.5 0 7.7-1.5 9.9-5.4h20c-3.3 13.8-16.4 20.1-29.8 20.1-19.4 0-33.9-11-33.9-31.2 0-19.5 13.4-31.3 32.4-31.3 20.3 0 32.1 12.6 32.1 32.6zm-19.3-12c-1-5.6-6.2-9.2-11.8-9.2-6.1 0-11.1 3.2-12.3 9.2z"/><path d="m512.8 470.5h.2c4-7.2 10.9-10.4 19-10.4h4v20c-2.9-1.6-5.6-1.9-8.8-1.9-11.5 0-14.4 7.7-14.4 17.7v23.6h-20.8v-58.6h20.8z"/><path d="m545.4 460.9h24l15.6 30 15.3-30h23.7l-47 87.8h-23.3l20-37.2z"/></g></svg>